<?xml version="1.0" encoding="utf-8"?>
<!-- Generator: Adobe Illustrator 16.0.3, SVG Export Plug-In . SVG Version: 6.00 Build 0)  -->
<!DOCTYPE svg PUBLIC "-//W3C//DTD SVG 1.1//EN" "http://www.w3.org/Graphics/SVG/1.1/DTD/svg11.dtd">
<svg version="1.1" id="Layer_1" xmlns="http://www.w3.org/2000/svg" xmlns:xlink="http://www.w3.org/1999/xlink" x="0px" y="0px"
	 width="394.016px" height="30.863px" viewBox="0 0 394.016 30.863" enable-background="new 0 0 394.016 30.863"
	 xml:space="preserve">
<g>
	<path d="M52.105,2.368C51.243,0.791,49.736,0.003,47.585,0H2.152l6.102,9.509L0,30.86h35.673c2.091,0,4.215-0.787,6.359-2.361
		c2.131-1.611,3.638-3.526,4.527-5.745l5.633-14.637C53.055,5.898,53.028,3.983,52.105,2.368 M35.211,23.178l-21.135-0.007
		l4.284-11.063l-5.81-4.436L41.218,7.68L35.211,23.178z"/>
	<path d="M99.383,2.378C98.522,0.804,97.015,0.003,94.863,0h-27.67c-2.125,0.003-4.263,0.787-6.414,2.368
		c-2.117,1.575-3.611,3.489-4.472,5.742l-8.776,22.75h11.165l3.787-9.854l20.842,0.008l-3.787,9.847h11.07L99.52,7.791
		C100.286,5.73,100.239,3.925,99.383,2.378 M85.864,14.446l-20.844-0.01l1.052-2.705l-5.3-4.051l27.725,0.006L85.864,14.446z"/>
	<path d="M252.114,8.124l-8.771,22.736h-11.165l8.959-23.171L230.53,7.686l-8.952,23.174h-11.164l8.958-23.18l-10.607-0.003
		l-8.952,23.184h-11.157l8.903-23.096l8.383-7.761h41.604c2.16,0,3.66,0.804,4.521,2.378C252.961,3.96,252.975,5.877,252.114,8.124"
		/>
	<path d="M393.246,2.375c-0.863-1.574-2.426-2.372-4.699-2.372h-28.979l-7.869,7.282l-9.072,23.578h11.463l3.029-7.889l-4.785-3.648
		l18.39,0.007l2.757,11.53h12.204l-3.956-11.428c1.411-0.194,2.673-0.53,3.773-1.012c1.104-0.482,2.084-1.068,2.926-1.758
		c0.845-0.692,1.559-1.456,2.142-2.29c0.587-0.835,1.06-1.717,1.432-2.651l1.38-3.614C394.267,5.895,394.229,3.983,393.246,2.375
		 M380.158,12.589l-19.025-0.007l1.991-5.158l19.024,0.008L380.158,12.589z"/>
	<path d="M141.029,0.003h-28.98l-7.86,7.282l-9.081,23.578h11.464l3.027-7.886l-4.786-3.651l18.394,0.007l2.755,11.53h12.203
		l-3.957-11.425c1.412-0.198,2.667-0.533,3.773-1.015c1.106-0.479,2.083-1.068,2.926-1.758c0.848-0.688,1.56-1.453,2.144-2.29
		c0.584-0.835,1.059-1.713,1.433-2.647l1.377-3.618c0.897-2.215,0.85-4.126-0.135-5.731C144.863,0.801,143.303,0,141.029,0.003
		 M132.641,12.593l-19.025-0.01l1.996-5.158l19.018,0.008L132.641,12.593z"/>
	<polygon points="156.422,30.86 165.381,7.683 150.118,7.68 153.069,0 196.106,0 193.153,7.692 169.82,7.689 175.969,12.393 
		168.837,30.86 	"/>
	<path d="M298.809,2.378c-0.854-1.574-2.41-2.375-4.655-2.375h-27.727c-2.151,0-4.304,0.784-6.452,2.361
		c-2.125,1.578-3.621,3.493-4.481,5.742l-5.626,14.63c-0.869,2.253-0.855,4.17,0.039,5.749c0.855,1.575,2.399,2.375,4.616,2.375
		h27.719c2.186,0,4.352-0.784,6.501-2.361c2.125-1.608,3.634-3.526,4.529-5.745l5.631-14.626
		C299.765,5.905,299.73,3.987,298.809,2.378 M281.874,23.181l-21.032-0.007l4.032-10.405l-6.714-5.093l29.715,0.009L281.874,23.181z
		"/>
	<path d="M346.106,2.378c-0.855-1.578-2.407-2.375-4.653-2.375h-27.721c-2.156-0.003-4.309,0.784-6.462,2.361
		c-2.121,1.578-3.614,3.493-4.478,5.742l-5.636,14.633c-0.854,2.25-0.847,4.167,0.051,5.745c0.855,1.578,2.395,2.375,4.605,2.375
		h27.729c2.184,0.003,4.35-0.784,6.502-2.361c2.122-1.608,3.629-3.526,4.526-5.745l5.633-14.63
		C347.059,5.905,347.031,3.987,346.106,2.378 M329.176,23.185l-21.035-0.007l4.019-10.381l-6.706-5.117l29.722,0.006L329.176,23.185
		z"/>
</g>
</svg>
